<svg width="80" height="40" viewBox="0 0 80 40" fill="none" xmlns="http://www.w3.org/2000/svg">
<path d="M59.2342 34.3427C56.8004 30.3782 53.2058 27.2622 48.9403 25.4195C48.1822 25.05 47.4099 24.7107 46.6251 24.4022C44.2527 23.7466 42.0629 22.5524 40.2253 20.9121C38.3877 19.2719 36.9516 17.2296 36.0285 14.9436C35.5224 13.3645 35.2817 11.712 35.3161 10.0537C34.3322 11.5339 33.2987 12.9803 32.2173 14.3904C29.5637 17.8169 25.9305 21.761 23.6687 20.9936C23.2583 20.8131 22.8978 20.5352 22.6185 20.1838C22.3393 19.8325 22.1496 19.4182 22.0659 18.9769C20.4253 20.3662 18.7196 21.6765 16.9546 22.9031L16.9012 22.5998C18.5931 21.3683 20.3206 20.1191 21.9768 18.6735L21.8344 17.9954C21.6846 15.1203 22.2797 12.2553 23.5619 9.67895C24.5521 7.04372 26.06 4.63446 27.9964 2.59393C29.2787 1.48745 30.2048 1.70161 30.6678 3.2007C31.5583 6.23459 28.7444 10.9639 26.9991 13.4981C25.6305 15.4593 24.0276 17.2453 22.2262 18.8163C22.3008 19.2213 22.4727 19.602 22.7272 19.9254C22.9817 20.2488 23.311 20.5052 23.6865 20.6723C26.5183 21.5825 31.8255 14.8901 35.3161 9.57187C35.3496 6.69901 36.1689 3.89039 37.6848 1.45176C38.5752 0.131121 39.1629 -0.297192 39.4301 0.202508C39.5964 1.58244 39.3287 2.97998 38.6643 4.2001C37.7485 6.13322 36.6888 7.99451 35.4942 9.76818C35.4383 11.4497 35.6733 13.1283 36.1888 14.7295C37.1052 16.9876 38.5281 19.004 40.3471 20.6225C42.1661 22.2411 44.3325 23.4183 46.6785 24.0632C47.4978 24.4201 48.2814 24.7235 48.9938 25.0804C53.2799 26.9486 56.8869 30.0957 59.3232 34.0928L59.2342 34.3427ZM29.4034 2.237C28.8891 2.30475 28.4125 2.54356 28.0499 2.91516C24.3253 7.02993 22.1795 12.3361 21.9947 17.8883L22.1371 18.5129C23.9185 16.9506 25.5033 15.1767 26.8566 13.2304C29.2853 10.5373 30.5807 7.0074 30.4719 3.37917C30.2226 2.54039 29.8308 2.237 29.4034 2.237ZM39.1273 0.345279C38.8958 0.345279 38.4506 0.702207 37.7738 1.7373C36.3591 4.00644 35.5723 6.6119 35.4942 9.28633C36.6325 7.59677 37.6444 5.82514 38.5218 3.98595C39.0947 2.89397 39.3595 1.66609 39.2876 0.434511C39.2702 0.403555 39.2439 0.378523 39.2122 0.362625C39.1804 0.346726 39.1625 0.340687 39.1273 0.345279Z" fill="#1E3A8A"/>
<path d="M60.5343 35.0209C57.8192 31.3655 54.0813 28.6012 49.7952 27.0792C49.0828 26.7758 48.2458 26.4903 47.3909 26.1869C45.0371 25.6988 42.8215 24.6911 40.9053 23.2371C38.9891 21.783 37.4204 19.9192 36.3134 17.7812C35.7614 16.3914 35.4949 14.9043 35.5298 13.4089C31.8077 18.2274 26.1799 24.1702 23.2413 23.1351C22.8698 22.9732 22.5402 22.7282 22.2778 22.4188C22.0154 22.1095 21.8271 21.744 21.7275 21.3505C19.9992 22.6008 18.2165 23.7738 16.3847 24.8662L16.3134 24.545C18.0944 23.4742 19.8753 22.3677 21.6207 21.065L21.4782 20.4939C21.6567 15.6781 23.6112 11.0998 26.9635 7.64446C28.7801 5.78843 30.0979 5.68135 30.6679 7.34107C30.8507 7.88009 30.9115 8.45313 30.8459 9.01863C30.1673 11.8177 28.7883 14.3973 26.8388 16.5141C25.3862 18.2809 23.7236 19.8631 21.8878 21.2256C21.9873 21.5748 22.1638 21.8972 22.4042 22.169C22.6446 22.4409 22.9429 22.6551 23.2769 22.7961C26.1977 23.8312 31.8611 17.7991 35.5654 13.0162L35.5833 12.4808C35.7635 10.064 36.6148 7.74586 38.041 5.78843C38.9849 4.57488 39.6438 4.18226 39.8753 4.71765C40.0036 5.95413 39.7152 7.19804 39.0561 8.25124C38.0809 9.98078 36.9671 11.6281 35.7257 13.1768C35.6529 14.6741 35.8956 16.17 36.4381 17.5671C37.5402 19.6757 39.0961 21.5125 40.9935 22.9446C42.8908 24.3767 45.082 25.3684 47.4087 25.8478C48.2992 26.1512 49.1006 26.4546 49.8308 26.7401C54.148 28.2768 57.9112 31.0662 60.6411 34.7532L60.5343 35.0209ZM29.3678 6.52014C28.4498 6.69009 27.6259 7.19177 27.0525 7.93C23.8037 11.2805 21.8852 15.7029 21.6563 20.3689L21.7988 20.94C23.6354 19.5787 25.2982 17.9963 26.7498 16.2286C28.6624 14.189 30.0127 11.6858 30.6679 8.96509C30.7284 8.48451 30.6797 7.99644 30.5254 7.53738C30.2939 6.85922 29.902 6.52014 29.3856 6.52014H29.3678ZM39.5548 4.82473C39.3054 4.82473 38.8424 5.14596 38.13 6.07398C36.7557 7.96453 35.9354 10.202 35.7614 12.5344L35.7435 12.7664C36.9245 11.2772 37.9846 9.69576 38.9136 8.03708C39.488 7.11215 39.7791 6.03869 39.7507 4.94965C39.7356 4.91062 39.7084 4.87744 39.6732 4.85497C39.6379 4.83249 39.5964 4.8219 39.5548 4.82473Z" fill="#1E3A8A"/>
<path d="M61.9056 35.6098C58.8948 32.2575 55.0085 29.8158 50.6857 28.5605C49.8553 28.2721 49.018 28.0043 48.1745 27.7574C45.8304 27.3983 43.588 26.5485 41.5935 25.2632C39.5989 23.9779 37.8969 22.2859 36.5984 20.2976C36.0353 19.0864 35.761 17.7606 35.797 16.4249C32.2173 20.3511 26.9279 25.1696 23.7222 25.1696C23.1967 25.1854 22.6805 25.0282 22.2527 24.722C21.8249 24.4157 21.5091 23.9775 21.3535 23.4742C19.5191 24.6342 17.6135 25.6158 15.7614 26.5973L15.7079 26.294C17.5601 25.3303 19.4479 24.3309 21.2645 23.1887L21.122 22.7247C21.1973 19.079 22.6482 15.5973 25.1826 12.9805C27.1416 10.6605 29.7596 8.73309 30.7035 11.0174C30.8805 11.4711 30.9417 11.9618 30.8816 12.4451C30.1501 15.0396 28.6988 17.3727 26.6964 19.1732C25.1478 20.7725 23.4139 22.1805 21.5316 23.3671C21.6478 23.664 21.823 23.9341 22.0465 24.1611C22.2699 24.3881 22.5371 24.5673 22.8317 24.6878C25.8593 25.83 31.8967 20.3868 35.8148 16.0501V15.7467C35.9948 13.4808 36.9006 11.3337 38.3972 9.62541C39.4479 8.50109 40.1247 8.1977 40.3562 8.75094C40.4319 9.86137 40.1098 10.9624 39.4479 11.8562C38.4171 13.4104 37.2552 14.8732 35.9751 16.2286C35.9136 17.5568 36.1765 18.88 36.7409 20.0834C38.0298 22.0455 39.7148 23.7151 41.6872 24.9846C43.6596 26.2541 45.8756 27.0953 48.1923 27.454C49.1006 27.7217 49.9555 27.9715 50.7213 28.2392C55.0667 29.5066 58.9717 31.967 61.9947 35.3421L61.9056 35.6098ZM29.3856 10.2857C28.228 10.2857 26.6073 11.6778 25.2894 13.2482C22.8553 15.7609 21.429 19.0832 21.2823 22.5819L21.4426 23.0995C23.3377 21.9157 25.0837 20.5076 26.6429 18.9055C28.6144 17.1749 30.0382 14.9045 30.7391 12.3738C30.787 11.9739 30.7318 11.5683 30.5788 11.1959C30.5054 10.935 30.3493 10.7051 30.134 10.5409C29.9188 10.3767 29.6561 10.2872 29.3856 10.2857ZM40 8.80448C39.7329 8.80448 39.252 9.09002 38.504 9.91096C37.0625 11.5543 36.1881 13.6196 36.0107 15.8003V15.8538C37.2381 14.5408 38.3523 13.1259 39.3411 11.6242C39.9091 10.8467 40.2204 9.91077 40.2315 8.94725C40.2155 8.90023 40.1836 8.86027 40.1413 8.83422C40.0991 8.80817 40.0491 8.79766 40 8.80448Z" fill="#1E3A8A"/>
<path d="M63.3482 36.1273C60.0423 33.0711 56.0064 30.9198 51.6296 29.8811C50.7558 29.6254 49.8771 29.3874 48.9938 29.1672C44.2601 28.6393 39.9232 26.2676 36.919 22.5641C36.3284 21.5081 36.0331 20.312 36.0641 19.1019C31.8789 23.0281 25.4675 27.8823 22.3508 26.6687C21.7386 26.4257 21.2461 25.9515 20.9795 25.3481C19.0561 26.3832 17.0614 27.2577 15.1024 28.1321L15.0846 27.8287C17.0479 26.9862 18.9786 26.0694 20.8727 25.0804L20.7302 24.6878C20.6533 23.5522 20.8078 22.4128 21.1844 21.3389C21.561 20.2651 22.1518 19.2793 22.9207 18.4415C25.3072 15.1043 29.4746 11.6956 30.7213 14.2655C30.8951 14.651 30.9568 15.0778 30.8994 15.4969C30.1158 17.9231 28.5969 20.0441 26.5539 21.5647C24.9007 22.9971 23.0903 24.2365 21.1576 25.2589C21.4132 25.7633 21.8439 26.1568 22.3687 26.3653C25.4853 27.5789 31.9145 22.6711 36.0819 18.7628V18.62C36.267 16.4875 37.2309 14.4985 38.789 13.0341C39.911 11.999 40.6411 11.7491 40.8192 12.3202C40.8575 13.3199 40.5135 14.2966 39.8575 15.0507C38.7635 16.4525 37.5477 17.7545 36.2244 18.9412C36.1632 20.125 36.4412 21.3016 37.0258 22.3321C40.0163 25.9946 44.3183 28.339 49.0116 28.8638C49.9555 29.0958 50.8459 29.3278 51.6474 29.5777C56.0514 30.6199 60.1124 32.7837 63.4372 35.8596L63.3482 36.1273ZM29.3143 13.6944C27.8183 13.6944 25.4319 15.3184 23.0098 18.6914C21.5671 20.2912 20.8008 22.39 20.8727 24.545L21.0329 24.9912C22.9862 23.9614 24.8148 22.7099 26.4826 21.2613C28.4908 19.8291 29.9887 17.7903 30.7569 15.4433C30.7994 15.1075 30.7437 14.7665 30.5966 14.4618C30.4835 14.2204 30.301 14.0184 30.0725 13.8817C29.8441 13.745 29.58 13.6798 29.3143 13.6944ZM40.4274 12.3381C40.1603 12.3381 39.6794 12.5522 38.8602 13.3196C37.3806 14.6993 36.4505 16.5698 36.2422 18.5843C37.5262 17.4293 38.7062 16.1633 39.7685 14.8009C40.3199 14.1485 40.645 13.3343 40.6946 12.4808C40.6718 12.431 40.6334 12.39 40.5851 12.3642C40.5368 12.3384 40.4814 12.3292 40.4274 12.3381Z" fill="#1E3A8A"/>
<path d="M64.862 36.5913C61.2595 33.8078 57.0574 31.9072 52.5913 31.0411C51.6808 30.8113 50.7664 30.5971 49.8486 30.3986C45.0833 30.0173 40.6111 27.9411 37.2395 24.545C36.6356 23.6375 36.3247 22.5659 36.3491 21.4754C31.8967 25.009 25.0757 29.3992 21.8522 28.1321C21.3121 27.9177 20.8645 27.5197 20.5877 27.0078C18.5752 27.9358 16.4915 28.7211 14.4435 29.5063L14.4078 29.2029C16.4203 28.4355 18.4684 27.6681 20.463 26.7758L20.3206 26.4367C20.2086 25.7863 20.2348 25.1194 20.3974 24.4798C20.5601 23.8402 20.8555 23.2421 21.2645 22.7247C23.6687 18.7985 29.2609 14.551 30.7391 17.1387C30.9214 17.4641 30.9962 17.8389 30.9528 18.2095C30.7747 19.9942 28.3704 22.1357 26.3936 23.6527C24.6391 24.944 22.7525 26.0447 20.7658 26.9364C21.0363 27.3452 21.4291 27.6576 21.8878 27.8287C25.0223 29.078 31.9323 24.6164 36.3669 21.1185C36.4709 20.1278 36.7758 19.1689 37.2627 18.3004C37.7496 17.432 38.4084 16.6723 39.1986 16.068C39.9109 15.5147 41.1042 14.7116 41.3357 15.4969C41.4604 15.9966 41.0686 16.8889 40.3028 17.8883C39.1435 19.1531 37.874 20.3118 36.5093 21.3505C36.4536 22.401 36.7412 23.4411 37.3286 24.313C40.6872 27.678 45.1321 29.7343 49.8664 30.1131C50.8459 30.3272 51.772 30.5236 52.6269 30.7377C57.1016 31.6143 61.3098 33.5272 64.9154 36.3236L64.862 36.5913ZM29.3143 16.639C27.0882 16.639 23.2057 19.9406 21.3713 22.9567C21.0024 23.4193 20.7302 23.9516 20.5711 24.5219C20.412 25.0922 20.3692 25.6888 20.4452 26.2761L20.6233 26.6866C22.6361 25.7876 24.5467 24.6748 26.3224 23.3671C29.0828 21.297 30.6857 19.4409 30.8103 18.156C30.8352 17.882 30.7729 17.6071 30.6322 17.3707C30.5004 17.1409 30.3072 16.9523 30.0745 16.8262C29.8417 16.7002 29.5785 16.6237 29.3143 16.639ZM40.8905 15.4612C40.2692 15.5924 39.6998 15.9025 39.252 16.3535C37.7669 17.478 36.787 19.1465 36.5272 20.9936C37.8526 19.9866 39.0863 18.8639 40.2137 17.6384C41.0329 16.5677 41.2467 15.8538 41.1754 15.6218C41.1754 15.5504 41.0686 15.4612 40.9083 15.4612H40.8905Z" fill="#1E3A8A"/>
<path d="M66.4292 37.0197C62.5452 34.4948 58.1776 32.811 53.6064 32.0762C52.7337 31.8799 51.7542 31.7014 50.7391 31.5051C45.9051 31.2298 41.2864 29.4097 37.5601 26.3118C36.9351 25.5283 36.6071 24.5483 36.634 23.5456C31.2556 27.1684 22.4399 31.8977 20.1603 28.5069C18.0463 29.3047 15.9081 30.0367 13.7489 30.702L13.7133 30.4165C15.8148 29.7383 17.9519 29.0602 20.0178 28.2749L19.8931 27.9894C19.7791 27.6001 19.7519 27.1905 19.8135 26.7896C19.875 26.3887 20.0238 26.0062 20.2493 25.6693C22.1549 22.0465 29.065 17.1923 30.7569 19.7086C30.9473 19.9785 31.0357 20.3075 31.0062 20.6366C30.8638 22.2428 28.3348 24.1702 26.2155 25.5087C24.3664 26.6646 22.4101 27.6388 20.374 28.4177C21.6919 30.0952 25.2182 29.5955 30.4185 26.9543C32.5699 25.8521 34.6516 24.6183 36.6518 23.2601C36.7835 22.3385 37.1168 21.4574 37.6278 20.6799C38.1389 19.9025 38.8152 19.2478 39.6082 18.7628C40.374 18.2452 41.6563 17.5135 41.8344 18.2988C41.9947 18.9591 41.122 19.9942 40.748 20.3868C39.5192 21.5149 38.1965 22.5359 36.7943 23.4385C36.743 24.3892 37.0478 25.3248 37.6492 26.062C41.3523 29.138 45.9376 30.9509 50.7391 31.2374L53.6242 31.7728C58.21 32.5157 62.5899 34.2118 66.4826 36.752L66.4292 37.0197ZM29.2965 19.2803C27.4502 19.7305 25.7112 20.5426 24.1798 21.6698C22.6484 22.797 21.3549 24.217 20.374 25.8478C20.1792 26.131 20.0467 26.4525 19.9853 26.791C19.9239 27.1294 19.935 27.4771 20.0178 27.8109L20.1959 28.1678C22.282 27.385 24.2862 26.3987 26.1799 25.2232C29.0472 23.385 30.7569 21.6896 30.8459 20.5831C30.8675 20.3487 30.8043 20.1144 30.6679 19.9228C30.5132 19.7071 30.3059 19.5348 30.0658 19.4223C29.8257 19.3098 29.5609 19.2609 29.2965 19.2803ZM41.4069 18.2095C40.7648 18.3188 40.1628 18.5958 39.6616 19.0126C38.9294 19.4624 38.2982 20.0594 37.8078 20.7658C37.3173 21.4723 36.9783 22.273 36.8121 23.1173C38.1824 22.2356 39.4753 21.2386 40.6768 20.1369C41.5138 19.2268 41.7453 18.6022 41.6919 18.388C41.6919 18.2988 41.6028 18.2095 41.4069 18.2095Z" fill="#1E3A8A"/>
<path d="M68.0677 37.3766C63.9101 35.102 59.3703 33.6138 54.675 32.9864C53.7667 32.8079 52.7338 32.6651 51.6652 32.4867C46.7402 32.2841 41.9732 30.6877 37.9163 27.8823C37.5963 27.5588 37.3447 27.1739 37.1764 26.7508C37.0081 26.3277 36.9266 25.8749 36.9368 25.4195C31.309 28.6318 22.1015 32.8257 19.7329 29.8097C17.5134 30.5263 15.2745 31.1809 13.0187 31.7728L13.0009 31.5051C15.1915 30.8983 17.4176 30.2916 19.5904 29.5955L19.4657 29.3635C19.3664 29.1102 19.3244 28.8379 19.3429 28.5663C19.3614 28.2947 19.4398 28.0306 19.5726 27.7931C20.9439 24.6878 28.8513 19.548 30.7925 21.993C30.9807 22.2228 31.0703 22.518 31.0419 22.8139C30.935 24.2416 28.2636 25.9549 26.0552 27.1684C24.0972 28.2008 22.0532 29.0607 19.9466 29.7383C22.4399 32.4688 31.4515 28.3106 36.9546 25.1339C37.1245 24.2717 37.4932 23.4612 38.0313 22.7672C38.5693 22.0731 39.2618 21.5146 40.0534 21.1363C40.8549 20.6902 42.2262 20.0299 42.3687 20.7794C42.4933 21.3683 41.7097 22.1893 41.2289 22.6176C39.9211 23.6327 38.5334 24.5399 37.0793 25.3303C37.0592 25.7592 37.1298 26.1876 37.2863 26.5874C37.4428 26.9872 37.6818 27.3494 37.9875 27.6503C42.0322 30.4352 46.7796 32.0189 51.683 32.219C52.7516 32.3974 53.7667 32.5402 54.6928 32.7187C59.3939 33.3451 63.9398 34.8333 68.1033 37.1089L68.0677 37.3766ZM29.2431 21.636C27.3103 22.0063 25.4699 22.7569 23.8283 23.8444C22.1868 24.9318 20.7766 26.3346 19.6794 27.9715C19.5671 28.1509 19.4988 28.3544 19.4802 28.5654C19.4617 28.7764 19.4933 28.9888 19.5726 29.1851L19.7507 29.542C21.9079 28.8478 23.9998 27.9639 26.0018 26.9007C29.0294 25.2589 30.8103 23.7419 30.8994 22.7604C30.9119 22.5655 30.848 22.3734 30.7213 22.225C30.5373 22.0187 30.308 21.8582 30.0515 21.7559C29.7949 21.6537 29.5182 21.6127 29.2431 21.636ZM41.8878 20.708C41.2474 20.8059 40.638 21.0501 40.1069 21.4219C39.3779 21.7706 38.733 22.2734 38.2165 22.8957C37.7 23.518 37.3242 24.2451 37.1149 25.0269C38.5303 24.2554 39.8821 23.3722 41.1576 22.3856C42.0125 21.6004 42.2618 21.0471 42.2262 20.8687C42.2262 20.7973 42.1371 20.708 41.9056 20.708H41.8878Z" fill="#1E3A8A"/>
<path d="M69.7774 39.8929C68.8501 39.4065 67.9299 38.9067 67.0169 38.3938C63.5678 36.2302 59.7722 34.6787 55.797 33.8073C54.7491 33.6387 53.6982 33.49 52.6447 33.3611C47.5948 33.2037 42.6627 31.7933 38.2903 29.2565C37.9682 28.9926 37.7085 28.6605 37.5299 28.284C37.3513 27.9075 37.2582 27.4961 37.2573 27.0792C31.3802 29.9346 21.7453 33.6824 19.2698 30.9876C16.9451 31.6212 14.6055 32.1984 12.2529 32.7187V32.451C14.5325 31.9156 16.8477 31.3802 19.1095 30.7556L19.0027 30.5949C18.9118 30.4157 18.8629 30.218 18.8598 30.017C18.8568 29.816 18.8995 29.6169 18.9849 29.4349C20.353 27.3905 22.2918 25.7953 24.5592 24.8484C26.8923 23.7062 29.7596 22.8853 30.8281 24.0096C30.9183 24.1037 30.9873 24.2162 31.0303 24.3394C31.0733 24.4625 31.0894 24.5935 31.0775 24.7235C31.0062 25.7586 29.2609 27.0614 25.8593 28.6497C23.8011 29.5673 21.6755 30.3251 19.5013 30.9162C22.1549 33.3076 31.5405 29.6134 37.2752 26.8115C37.4862 26.0027 37.8897 25.2571 38.4511 24.6386C39.0125 24.0201 39.7151 23.5471 40.4987 23.2601C41.3535 22.8496 42.8139 22.2607 42.9208 22.9567C43.0098 23.4921 42.3152 24.1345 41.7275 24.5986C40.3474 25.5094 38.9007 26.3147 37.3998 27.0078V27.0435C37.3989 27.4235 37.4832 27.7988 37.6466 28.1417C37.81 28.4846 38.0483 28.7863 38.3437 29.0245C42.7033 31.541 47.6159 32.9388 52.6447 33.0934C53.7667 33.2541 54.8353 33.379 55.797 33.5396C59.7853 34.414 63.593 35.9716 67.0525 38.144L69.813 39.6431L69.7774 39.8929ZM29.2253 23.7419C27.2273 23.9833 25.2985 24.6261 23.5542 25.6319C21.8099 26.6377 20.2861 27.9858 19.0739 29.5955C19.014 29.7215 18.9844 29.8597 18.9875 29.9992C18.9906 30.1387 19.0263 30.2755 19.0917 30.3986L19.3054 30.702C21.5412 30.1007 23.7265 29.325 25.8415 28.382C30.3651 26.2761 30.9172 25.0983 30.9528 24.7056C30.9587 24.62 30.9458 24.534 30.915 24.4539C30.8843 24.3737 30.8364 24.3013 30.7747 24.2416C30.5642 24.0566 30.3182 23.9169 30.0517 23.8309C29.7852 23.745 29.5039 23.7147 29.2253 23.7419ZM42.4399 22.9031C41.7688 22.9789 41.1203 23.1915 40.5343 23.5278C39.8149 23.7987 39.1641 24.2255 38.6284 24.7778C38.0927 25.33 37.6853 25.994 37.4354 26.7223C38.9047 26.0434 40.3214 25.256 41.6741 24.3665C42.5646 23.6527 42.8139 23.1708 42.7961 23.0459C42.7961 22.9924 42.6892 22.9031 42.4399 22.9031Z" fill="#1E3A8A"/>
<path d="M71.5583 39.8929C70.6272 39.4818 69.701 39.0594 68.7801 38.6258C65.0621 36.6655 61.0689 35.2815 56.9368 34.5212L53.642 34.1285C48.4477 34.0134 43.3391 32.7778 38.6643 30.5057C38.3389 30.2917 38.0712 30.0006 37.8849 29.6582C37.6985 29.3158 37.5992 28.9326 37.5957 28.5426C31.4515 31.0946 21.3713 34.4141 18.8068 32.0227C16.3727 32.5891 13.9262 33.1008 11.4693 33.5574L11.4515 33.3076C13.8379 32.8436 16.26 32.3617 18.6109 31.8085L18.5218 31.6836C18.4399 31.5515 18.3893 31.4025 18.3739 31.2478C18.3584 31.0931 18.3786 30.9369 18.4328 30.7913C18.878 29.4171 21.7097 27.6681 24.1496 26.633C26.6429 25.5623 29.724 24.777 30.8638 25.8121C30.9557 25.8905 31.0278 25.9896 31.0742 26.1012C31.1206 26.2129 31.1401 26.334 31.1309 26.4546C31.0775 27.3647 29.2431 28.5426 25.6812 29.9346C23.5207 30.7556 21.3073 31.4294 19.0561 31.9513C21.8522 34.0393 31.6296 30.7734 37.6135 28.2928C37.7916 27.097 39.0383 25.937 40.9973 25.1518C42.0659 24.7056 43.4194 24.2952 43.4907 24.9019C43.5619 25.2767 43.1345 25.7764 42.244 26.3653C40.7868 27.1821 39.2754 27.8977 37.7204 28.5069V28.5426C37.7365 28.8876 37.8355 29.2236 38.0092 29.5219C38.1829 29.8202 38.4259 30.072 38.7177 30.2559C43.3816 32.5229 48.4775 33.7585 53.6598 33.8787C54.8353 34.0036 55.9573 34.1285 56.9546 34.2713C61.0926 35.031 65.0917 36.4149 68.8157 38.376C69.7774 38.8221 70.6857 39.2505 71.5939 39.6252L71.5583 39.8929ZM29.1897 25.5801C25.0845 25.9253 21.2701 27.8429 18.5396 30.934C18.5055 31.0211 18.4925 31.1151 18.5018 31.2082C18.5111 31.3013 18.5424 31.3908 18.5931 31.4694L18.8246 31.755C21.1428 31.2217 23.4218 30.5301 25.6456 29.6848C30.5432 27.7752 30.9884 26.7044 30.9884 26.4189C30.9873 26.3473 30.9708 26.2768 30.9401 26.2121C30.9093 26.1474 30.8651 26.0901 30.8103 26.0441C30.3444 25.6971 29.7682 25.5321 29.1897 25.5801ZM43.0098 24.8484C42.3186 24.9075 41.6433 25.0888 41.0151 25.3838C40.2999 25.5888 39.6385 25.9494 39.0783 26.4399C38.518 26.9303 38.0726 27.5386 37.7738 28.2214C39.2979 27.6209 40.7795 26.9173 42.2084 26.1155C43.2057 25.4552 43.3838 25.0447 43.366 24.9733C43.366 24.9198 43.2591 24.8484 43.0098 24.8484Z" fill="#1E3A8A"/>
<path d="M73.4283 39.8751C72.5048 39.5269 71.5846 39.1699 70.6679 38.8043C66.672 37.0456 62.4625 35.8215 58.1478 35.1636L54.7106 34.8067C49.3387 34.7189 44.03 33.6296 39.0561 31.5943C38.7343 31.4294 38.4613 31.1827 38.2644 30.8789C38.0675 30.5752 37.9536 30.2249 37.9341 29.8632C35.495 30.7258 33.0236 31.4937 30.5254 32.1654C25.9127 33.379 20.1959 34.4676 18.3081 32.9328C15.797 33.4682 13.1968 33.8787 10.65 34.307L10.6144 34.0928C13.1077 33.6645 15.6367 33.2541 18.0944 32.7544L18.0053 32.6651C17.9332 32.5628 17.8859 32.4449 17.8674 32.3209C17.8488 32.197 17.8595 32.0704 17.8985 31.9513C18.2191 30.7377 21.1754 29.1494 23.7756 28.2035C26.447 27.222 29.7061 26.5081 30.8994 27.4361C30.9886 27.4978 31.0613 27.5805 31.111 27.677C31.1607 27.7735 31.1859 27.8808 31.1843 27.9894C31.1309 28.8103 29.2253 29.8632 25.4853 31.1125C23.2246 31.8416 20.9232 32.4375 18.5931 32.8971C21.5494 34.7175 31.7364 31.8263 37.9697 29.6312C38.1656 28.5605 39.4479 27.5432 41.4782 26.8472C42.6358 26.4367 44.0249 26.0798 44.0962 26.6509C44.114 26.7758 44.1674 27.1684 42.7961 27.9358C41.2597 28.674 39.6773 29.3119 38.0588 29.8454V29.8811C38.0878 30.1989 38.1981 30.5038 38.3791 30.7664C38.56 31.029 38.8055 31.2404 39.0917 31.3802C44.0601 33.4133 49.3625 34.5026 54.7284 34.5925C55.9572 34.6996 57.1149 34.8245 58.1656 34.9495C62.4802 35.6078 66.6896 36.8318 70.6857 38.5901L73.4461 39.6609L73.4283 39.8751ZM29.1362 27.2041C24.9696 27.4368 21.0227 29.1518 18.0053 32.0405C17.9829 32.1066 17.9777 32.1774 17.9901 32.2461C18.0026 32.3148 18.0324 32.3792 18.0766 32.4331L18.3259 32.683C20.7348 32.2125 23.1136 31.5987 25.4497 30.8448C30.5966 29.1315 31.0418 28.2035 31.0597 27.9537C31.0516 27.8871 31.0281 27.8234 30.991 27.7676C30.9538 27.7118 30.9042 27.6655 30.8459 27.6324C30.3335 27.3185 29.7351 27.157 29.1362 27.2041ZM43.5975 26.5795C42.8765 26.6315 42.1678 26.794 41.496 27.0614C40.7891 27.2179 40.1228 27.5211 39.54 27.9514C38.9572 28.3818 38.4708 28.9297 38.1122 29.5599C39.6922 29.03 41.2385 28.4042 42.7426 27.686C43.74 27.1327 43.9715 26.7758 43.9893 26.6687C43.9537 26.633 43.8646 26.5795 43.5975 26.5795Z" fill="#1E3A8A"/>
<path d="M75.3874 39.8751C74.4969 39.6074 73.6064 39.304 72.6625 38.9828C68.3822 37.4027 63.9372 36.3131 59.4123 35.7347L55.8504 35.4313C50.2716 35.3634 44.7398 34.3993 39.4657 32.5759C38.6643 32.1119 38.2903 31.6122 38.2903 31.0233C31.594 33.0221 20.5699 35.6633 17.7916 33.7538C15.1558 34.2178 12.4488 34.5925 9.77739 34.9852L9.75958 34.7353C12.342 34.3784 14.9956 34.0036 17.5423 33.5575L17.4889 33.5039C17.4157 33.4232 17.3642 33.3252 17.3393 33.219C17.3144 33.1128 17.3168 33.0021 17.3464 32.8971C17.5957 31.8263 20.5877 30.4343 23.4372 29.542C25.792 28.5154 28.4114 28.2654 30.9172 28.8281C31.0106 28.8778 31.0884 28.9525 31.1419 29.0439C31.1953 29.1353 31.2224 29.2398 31.2199 29.3457C31.2199 29.6134 31.1665 30.4522 25.2894 32.1119C22.9256 32.7683 20.5301 33.3044 18.1122 33.7181C24.9851 34.2644 31.8927 33.2582 38.3259 30.7734C38.5574 29.8454 39.8931 28.9352 41.9947 28.3106C43.2057 27.9537 44.6661 27.6324 44.7373 28.15C44.7373 28.2749 44.7729 28.614 43.366 29.31C41.753 29.958 40.1062 30.518 38.4328 30.9876V31.0233C38.415 31.4694 38.789 31.9334 39.5013 32.3439C44.7585 34.1617 50.2718 35.1257 55.8326 35.1993C57.1149 35.2886 58.3259 35.3778 59.4123 35.5027C63.9432 36.0799 68.3942 37.1695 72.6803 38.7508L75.4052 39.6431L75.3874 39.8751ZM29.1362 28.6854C27.1965 28.7785 25.2789 29.1388 23.4372 29.7562C20.2315 30.7913 17.6492 32.1833 17.4533 33.0042C17.4403 33.0554 17.4418 33.1092 17.4575 33.1596C17.4732 33.21 17.5026 33.2551 17.5423 33.2898L17.7916 33.5218C20.3115 33.104 22.8082 32.556 25.2716 31.8799C30.65 30.3629 31.0953 29.542 31.1131 29.31C31.1131 29.2565 31.0597 29.1672 30.8994 29.0602C30.3499 28.779 29.7336 28.6555 29.1184 28.7032L29.1362 28.6854ZM44.203 28.1143C43.4573 28.1605 42.7208 28.3045 42.0125 28.5426C40.1069 29.1137 38.7712 29.9346 38.4862 30.7377C40.1296 30.2725 41.7467 29.7185 43.3304 29.078C44.2386 28.6318 44.5592 28.3285 44.6126 28.1857C44.5592 28.15 44.4346 28.1143 44.203 28.1143Z" fill="#1E3A8A"/>
<path d="M77.3998 39.8751C76.5259 39.6416 75.6533 39.4037 74.7818 39.1612C70.203 37.7344 65.4972 36.7542 60.7302 36.2344C59.4841 36.1377 58.2374 36.0484 56.9902 35.9667C51.2022 35.9111 45.4493 35.0584 39.8931 33.4325C39.0739 33.0221 38.6643 32.5759 38.6821 32.0584C31.7863 34.3777 24.4779 35.2049 17.2395 34.4855C14.4969 34.8959 11.6474 35.235 8.86911 35.5563V35.3421C11.5583 35.0209 14.301 34.6818 16.9724 34.2892L16.919 34.2713C16.8517 34.2088 16.8016 34.13 16.7735 34.0425C16.7455 33.955 16.7403 33.8617 16.7587 33.7716C16.9902 32.683 20.8549 31.3623 23.081 30.7377C25.6091 29.8321 28.332 29.6166 30.9706 30.1131C31.0584 30.1506 31.1336 30.2126 31.1873 30.2917C31.2409 30.3708 31.2708 30.4637 31.2734 30.5593C31.2734 30.8091 31.2378 31.5587 25.0757 33.0578C22.7605 33.5931 20.2315 34.0572 17.5957 34.4498C24.7376 34.9309 31.9056 34.0467 38.7177 31.8442C39.0205 30.6485 41.4604 29.9168 42.5289 29.6491C44.3989 29.1851 45.3606 29.1315 45.3785 29.5242C45.3963 29.6491 45.4319 29.9525 43.9537 30.5414C42.2568 31.1228 40.5333 31.623 38.789 32.0405V32.0762C38.789 32.2904 38.9314 32.7365 39.9288 33.2184C45.4735 34.841 51.2142 35.6937 56.9902 35.7526L60.7302 36.0203C65.5032 36.5392 70.2149 37.5193 74.7996 38.9471L77.4354 39.6609L77.3998 39.8751ZM29.1006 29.9882C27.0751 30.0721 25.0665 30.3956 23.1167 30.9519C19.7151 31.8799 17.0436 33.1113 16.8834 33.8252C16.8834 33.8608 16.8834 33.9322 16.9902 34.0572L17.2752 34.2535C20.0178 33.843 22.6536 33.379 25.0757 32.8079C30.846 31.4159 31.1665 30.6663 31.1843 30.5236C31.1843 30.5236 31.1843 30.4343 30.9528 30.3094C30.3694 30.0573 29.7347 29.9473 29.1006 29.9882ZM44.862 29.4706C44.0845 29.5084 43.3138 29.6341 42.5646 29.8454C40.2315 30.4343 39.163 31.2017 38.878 31.7728C41.407 31.1303 43.2948 30.5593 43.9537 30.3094C44.9866 29.8811 45.2182 29.6312 45.2716 29.542C45.1442 29.4808 45.0025 29.4561 44.862 29.4706Z" fill="#1E3A8A"/>
<path d="M79.5369 39.6252C73.8176 38.1851 67.9936 37.2005 62.1193 36.6806C60.8137 36.5967 59.5077 36.5193 58.2012 36.4486C52.1848 36.396 46.1954 35.6353 40.3562 34.1821C39.4835 33.8252 39.0739 33.4325 39.0739 32.9685C31.7968 35.0361 24.2066 35.7677 16.6696 35.1279C13.8201 35.4849 10.846 35.7883 7.94302 36.0916H7.88959V35.8775C10.7035 35.5741 13.5886 35.2886 16.3491 34.9495L16.3313 34.9316C16.2605 34.8836 16.2056 34.8155 16.1739 34.7359C16.1421 34.6564 16.1349 34.5692 16.1532 34.4855C16.3313 33.5218 20.3562 32.3439 22.707 31.8085C25.3862 30.9814 28.2177 30.774 30.9884 31.2017C31.0809 31.2288 31.1621 31.2851 31.2199 31.3623C31.2778 31.4396 31.309 31.5335 31.309 31.63C31.309 31.8442 31.2734 32.5224 24.8264 33.843C22.4221 34.3248 19.7863 34.7353 17.0614 35.0922C24.4833 35.4908 31.9209 34.6955 39.0917 32.7365C39.4301 31.6836 41.959 31.0411 43.081 30.7913C46.0196 30.1666 46.0552 30.5771 46.0552 30.702C46.0552 30.827 46.0908 31.0946 44.5592 31.6122C42.7796 32.1326 40.9793 32.5792 39.163 32.9507C39.163 33.1113 39.2698 33.5396 40.3562 33.9679C46.1845 35.4127 52.1618 36.1674 58.1656 36.2166L62.0837 36.4664C67.9694 36.9792 73.8053 37.9579 79.5369 39.3932V39.6252ZM28.9582 31.1125C24.5054 31.1435 20.1367 32.3302 16.2778 34.5569L16.3847 34.7353L16.6874 34.9138C19.537 34.5569 22.3152 34.1285 24.8442 33.611C30.8103 32.3974 31.2021 31.7193 31.2199 31.6122C31.2378 31.5051 31.2021 31.523 30.9884 31.4337C30.3409 31.188 29.6497 31.0787 28.9582 31.1125ZM45.5209 30.702C44.7164 30.738 43.9172 30.8515 43.1345 31.0411C40.8192 31.523 39.6082 32.2011 39.2876 32.7187C41.9234 32.1476 43.9181 31.6479 44.577 31.4159C45.0734 31.2895 45.5397 31.065 45.9484 30.7556C45.8112 30.7078 45.6656 30.6896 45.5209 30.702Z" fill="#1E3A8A"/>
<path d="M79.8575 39.6074C78.8706 39.3404 77.8522 39.2083 76.8299 39.2148C76.1344 38.9616 75.4197 38.7646 74.6928 38.6258C73.9537 38.4894 73.227 38.2924 72.52 38.0369C68.2458 37.448 63.9537 37.1446 59.8041 36.859C55.6545 36.5735 51.3624 36.2701 47.0703 35.6812L45.8415 35.7169C44.7454 35.9293 43.6144 35.8766 42.5427 35.5631C41.471 35.2496 40.4894 34.6844 39.6794 33.9144L39.6438 33.8608L38.0053 34.1285C36.3491 34.3962 34.6572 34.6639 32.9653 35.0922C27.9822 35.7789 22.9632 36.1722 17.9341 36.2701H17.8985V36.2344C17.8417 36.0343 17.7379 35.8507 17.5957 35.699C13.7845 36.1987 10.1692 36.4129 6.91006 36.5556V36.3415C9.75957 36.2344 12.8406 36.0559 16.0997 35.6812C15.9297 35.5068 15.8071 35.2918 15.7435 35.0565L15.7079 34.9316L15.7792 34.8959C20.5203 32.4933 25.8395 31.473 31.1309 31.9513H31.2021L31.1843 32.0762C30.9706 33.7359 30.4363 33.7359 29.9733 33.7359C29.8571 33.7187 29.7386 33.7257 29.6253 33.7564C29.5119 33.7871 29.406 33.8409 29.3143 33.9144C28.8869 34.307 28.3526 34.1999 27.7649 34.0572C27.4615 33.9827 27.1511 33.9408 26.8388 33.9322C23.856 34.7019 20.8286 35.286 17.7738 35.6812C17.8473 35.8052 17.907 35.9368 17.9519 36.0738C22.975 35.9746 27.988 35.5813 32.9653 34.8959C34.6394 34.4676 36.3491 34.1821 37.9875 33.9144C38.5931 33.8251 39.1808 33.7359 39.7863 33.611C40.6386 32.7644 41.6847 32.1397 42.8332 31.7913C43.9818 31.4429 45.198 31.3814 46.3758 31.6122C46.4369 31.5851 46.5043 31.5757 46.5704 31.5852C46.6366 31.5946 46.6987 31.6226 46.7498 31.6657L46.8923 31.6836L46.8566 31.7371L46.9279 31.7907L46.7498 31.862C46.4648 32.2368 46.2511 32.3439 46.1621 32.1833L46.1443 32.1297C44.1043 32.9227 41.9844 33.4912 39.8219 33.8251C40.6285 34.5505 41.5915 35.0794 42.6356 35.3704C43.6798 35.6614 44.777 35.7066 45.8415 35.5027L47.0882 35.4849C51.3624 36.0738 55.6545 36.3772 59.8041 36.6627C63.9537 36.9483 68.2458 37.2517 72.5378 37.8406C73.2391 38.0951 73.9597 38.292 74.6928 38.4295C75.4198 38.5679 76.1345 38.7648 76.8299 39.0185H76.8655C77.887 39.0051 78.9056 39.1312 79.8931 39.3932L79.8575 39.6074ZM15.8682 35.0565C16.1532 35.7526 16.4915 35.6098 16.8477 35.4849C17.1149 35.3778 17.382 35.2886 17.6135 35.4849C20.7168 35.0828 23.792 34.4867 26.821 33.7002C27.1458 33.724 27.4678 33.7777 27.7827 33.8608C28.3348 33.9858 28.8691 34.0928 29.2609 33.7181C29.3593 33.6372 29.4736 33.5779 29.5963 33.5441C29.719 33.5102 29.8474 33.5026 29.9733 33.5218C30.4185 33.5218 30.8638 33.5218 31.0419 32.1654C25.8143 31.7015 20.561 32.7025 15.8682 35.0565ZM44.9332 31.7371C44.0419 31.7074 43.1535 31.8545 42.3191 32.1699C41.4848 32.4854 40.7208 32.963 40.0712 33.5753C42.149 33.2416 44.1851 32.6851 46.1443 31.9156V31.8799L46.1799 31.8085C45.7659 31.7621 45.3497 31.7383 44.9332 31.7371Z" fill="#1E3A8A"/>
<path d="M79.8575 39.6074C72.8235 38.2957 65.7057 37.4847 58.5574 37.1803C54.8175 36.9304 50.935 36.6806 47.0703 36.288H46.9991C44.7078 36.4616 42.4101 36.0502 40.3206 35.0922L40.2671 35.0744V34.4141C37.8807 34.6818 35.4942 35.003 33.1434 35.3064C27.5024 36.1991 21.8088 36.7178 16.0997 36.859C15.7901 36.7907 15.4987 36.6568 15.2449 36.4664L12.0036 36.627C10.0089 36.7163 7.94301 36.8055 5.89493 36.9661V36.7698C7.9252 36.5913 9.9911 36.5021 12.0036 36.4129L15.0668 36.2701V36.1987L15.1202 36.0916L15.1558 36.0738C17.5152 34.4748 20.1816 33.3869 22.9846 32.8799C25.7876 32.3728 28.6653 32.4577 31.4337 33.1291L31.7542 33.2005L31.4515 33.3254C26.3728 35.2888 20.9902 36.3458 15.5476 36.4486C15.7093 36.5556 15.8911 36.6285 16.0819 36.6627C21.797 36.5222 27.4965 36.0035 33.1434 35.1101C35.4942 34.8067 37.8807 34.4855 40.2671 34.2178V33.7359H40.3206C42.4172 32.5321 44.8707 32.1087 47.2484 32.5402C47.3371 32.5363 47.4246 32.5614 47.4978 32.6116L47.6402 32.6473L47.6224 32.683H47.6581L47.5156 32.8079C47.3651 33.0103 47.1701 33.1752 46.9457 33.2898L46.8923 33.3254C46.7672 33.4869 46.6116 33.622 46.4344 33.7231C46.2571 33.8242 46.0617 33.8892 45.8593 33.9144C44.0271 34.0279 42.198 34.1886 40.374 34.3962V34.9316C42.4759 35.8669 44.7781 36.2595 47.0703 36.0738C50.935 36.4843 54.8175 36.7341 58.5574 36.9661C65.7116 37.2701 72.8354 38.0811 79.8753 39.3932L79.8575 39.6074ZM15.2449 36.2344L15.2805 36.2523C20.684 36.1783 26.0342 35.1701 31.0953 33.2719C28.3858 32.6519 25.5784 32.5948 22.8461 33.1044C20.1138 33.6139 17.5147 34.6792 15.2093 36.2344H15.2449ZM40.3918 33.9144V34.1999C42.2262 34.0036 44.0606 33.843 45.8593 33.7181C46.0431 33.699 46.2212 33.6435 46.3833 33.5546C46.5454 33.4657 46.6881 33.3454 46.8032 33.2005C46.7787 33.1251 46.7787 33.0439 46.8032 32.9685C46.8409 32.8666 46.9019 32.7749 46.9813 32.7008C44.713 32.3367 42.3886 32.7763 40.3918 33.9144ZM47.2663 32.7544C47.206 32.7609 47.1479 32.7802 47.0957 32.811C47.0435 32.8418 46.9985 32.8833 46.9635 32.9328L46.8923 33.1113L47.3019 32.7544H47.2663Z" fill="#1E3A8A"/>
<path d="M79.7506 39.6074C74.134 38.6117 68.446 38.0745 62.7426 38.0012C55.285 38.0206 47.8582 37.0423 40.6589 35.0922L40.1603 35.1636C37.9462 35.4181 35.7467 35.7874 33.5708 36.2701C31.4337 36.5735 29.3321 36.7163 27.2841 36.859C25.236 37.0018 23.1523 37.1624 20.9973 37.448L19.6972 37.5015C17.9334 37.7922 16.1237 37.451 14.5859 36.5378C11.3326 36.8676 8.07277 37.1294 4.80855 37.323V37.1446C7.94301 36.9661 11.1487 36.6627 14.3544 36.3593L14.2297 36.2701L14.1051 36.163L14.2297 36.0738C16.1394 35.1084 18.2531 34.6187 20.3918 34.6461C21.4189 34.5971 22.442 34.4838 23.455 34.307C24.9066 33.7763 26.4661 33.6108 27.9964 33.8251C29.1415 33.9504 30.2985 33.9143 31.4337 33.7181H31.5049L31.4871 33.843C31.309 34.8245 30.9528 34.6461 30.65 34.5033C30.3473 34.3605 30.0801 34.2356 29.9377 35.0387V35.0922H29.902C26.1264 35.3599 22.244 35.7526 18.4684 36.1452L14.8531 36.5021C16.341 37.2805 18.0384 37.5619 19.6972 37.3052L20.9973 37.2517C23.1345 36.9661 25.2538 36.8055 27.2841 36.6627C29.3143 36.52 31.4337 36.3772 33.5708 36.0738C35.7468 35.5913 37.9462 35.222 40.1603 34.9673L40.5165 34.9138C40.5165 34.6639 41.0329 34.307 41.2467 34.307C43.4122 33.6596 45.666 33.3585 47.9252 33.4147C48.0445 33.3852 48.1703 33.3978 48.2814 33.4504L48.4595 33.4682L48.4239 33.5039L48.5485 33.5574L48.2814 33.6288C48.0142 33.8965 47.8005 33.9679 47.7293 33.8073C45.5453 34.3676 43.3259 34.779 41.0864 35.0387C48.1571 36.8862 55.4355 37.8159 62.7426 37.8049C68.452 37.8773 74.146 38.4145 79.7685 39.4111L79.7506 39.6074ZM14.39 36.1809L14.6037 36.3415L18.4684 35.9489C22.2262 35.5562 26.1086 35.1636 29.8664 34.8959C30.0445 34.0036 30.3829 34.1821 30.6857 34.307C30.9706 34.4498 31.2199 34.5747 31.3624 33.9501C30.2486 34.1241 29.1166 34.1481 27.9964 34.0215C26.472 33.8079 24.9185 33.9734 23.4728 34.5033C22.4536 34.6753 21.4245 34.7826 20.3918 34.8245C18.3196 34.8098 16.2542 35.2739 14.39 36.1809ZM40.6411 34.8959C43.0244 34.63 45.3868 34.2007 47.7115 33.611V33.5574C45.5288 33.5502 43.3568 33.8628 41.2645 34.4855C41.0168 34.5382 40.7959 34.6952 40.6411 34.8959Z" fill="#1E3A8A"/>
<path d="M79.8041 39.5895L77.5957 39.4468C66.9975 38.759 56.4113 37.8963 45.8415 36.859H45.8059C44.0932 37.0297 42.3733 36.6146 40.9261 35.6812L40.8014 35.5741L40.9261 35.5027L40.9973 35.4492L39.8931 35.6276C31.8952 37.1355 23.7403 37.6331 15.6189 37.1089C11.398 37.4301 7.39092 37.5729 3.68655 37.6443V37.4658C7.08816 37.3944 10.7747 37.2695 14.6215 36.984L13.642 36.859L13.4996 36.8412L13.6064 36.6806C13.8922 36.343 14.2717 36.0983 14.6966 35.9775C15.1216 35.8568 15.5728 35.8654 15.9929 36.0024C16.2284 36.0427 16.4664 36.0665 16.7053 36.0738L18.878 35.5384C22.7722 34.1532 26.9631 33.8269 31.024 34.5925C31.1487 34.539 31.3268 34.5568 31.5583 34.7532L31.683 34.8067L31.6474 34.8424L31.7186 34.8959L31.5405 34.9316C31.1487 35.3064 30.9172 35.2707 30.8459 35.1101V35.0744C26.1728 35.9895 21.4517 36.639 16.7053 37.0197C24.4704 37.3722 32.2503 36.8333 39.8931 35.4135L41.4248 35.1993C43.2407 34.3466 45.2528 34.0013 47.2484 34.1999H48.6376C48.7266 34.1285 48.8691 34.0928 49.1006 34.1999L49.35 34.1821L49.2609 34.2535L49.439 34.3427L49.1006 34.3784C48.8335 34.5925 48.6554 34.5568 48.602 34.4498C46.2155 34.6996 43.7934 35.0387 41.4426 35.3956L41.0864 35.5919C42.5175 36.4463 44.1832 36.8214 45.8415 36.6627C56.4113 37.6999 66.9975 38.5626 77.5957 39.2505L79.8219 39.4111L79.8041 39.5895ZM13.8201 36.6984C14.4138 36.7817 15.0193 36.8531 15.6367 36.9126C20.7421 36.5456 25.821 35.8722 30.8459 34.8959L30.8816 34.7889V34.7532C26.8703 34.0327 22.7412 34.3647 18.8958 35.7169C18.1834 35.8953 17.4711 36.0916 16.7231 36.2523C16.4846 36.2511 16.2466 36.2332 16.0107 36.1987C15.6339 36.0818 15.2331 36.0664 14.8485 36.1541C14.4639 36.2418 14.1092 36.4296 13.8201 36.6984ZM46.3045 34.3784C44.8308 34.3148 43.3608 34.5705 41.9947 35.1279C43.7756 34.8602 45.5922 34.6104 47.3909 34.3962H47.2662L46.3045 34.3784ZM31.0418 34.7889L30.9706 34.8602L31.1665 34.8245L31.0418 34.7889Z" fill="#1E3A8A"/>
<path d="M78.2903 39.5895C65.8574 39.876 53.4316 38.7625 41.2467 36.2701C33.1559 37.4876 24.9579 37.8287 16.7943 37.2874C14.0517 37.4658 11.2734 37.5729 8.45949 37.68L2.51114 37.9477V37.7692L8.45949 37.5015C10.8816 37.3944 13.268 37.3052 15.6011 37.1803L13.0187 36.859L12.6625 36.8055L13.0187 36.6806C14.5761 36.0036 16.2396 35.605 17.9341 35.5027C19.5268 35.4637 21.1152 35.3206 22.6892 35.0744C25.496 34.4934 28.3958 34.536 31.1843 35.1993C31.3387 35.198 31.4891 35.2482 31.6118 35.3421L31.7542 35.3956L31.7186 35.4135L31.8077 35.4849L31.6118 35.5206C31.1843 35.8775 30.9706 35.8418 30.8994 35.699V35.6633C26.6597 36.4319 22.3777 36.9444 18.0766 37.1981C25.8115 37.5964 33.5668 37.2258 41.2289 36.0916C43.8771 35.1458 46.6842 34.7275 49.4924 34.8602C49.5647 34.8254 49.6438 34.8074 49.724 34.8074C49.8041 34.8074 49.8832 34.8254 49.9555 34.8602H50.276L50.1336 34.9495L50.2582 35.003L49.9555 35.0387C49.5815 35.2707 49.3678 35.3242 49.3143 35.1993V35.1458L41.7631 36.1987C54.3496 38.6929 67.1748 39.7703 80 39.4111V39.5895H78.2903ZM13.3749 36.7341C14.5147 36.8769 15.6545 36.9959 16.7943 37.091C21.5133 36.8545 26.2126 36.318 30.8638 35.4849L30.8816 35.4135L30.9528 35.3064C28.2318 34.7149 25.4177 34.6967 22.6892 35.2529C21.1152 35.4991 19.5268 35.6422 17.9341 35.6812C16.3667 35.7639 14.8248 36.1318 13.3749 36.7341ZM48.5485 35.0744C46.3177 35.0253 44.0934 35.3325 41.959 35.9846C44.1674 35.699 46.358 35.3778 48.5485 35.0744ZM31.1665 35.3778L31.0062 35.4492L31.2556 35.4135L31.1665 35.3778Z" fill="#1E3A8A"/>
<path d="M74.5147 39.6966C63.7128 39.5091 52.9365 38.5789 42.2618 36.9126C38.5218 37.2695 34.7818 37.4658 31.1309 37.6621C28.9938 37.7692 26.821 37.8763 24.6839 38.0191C23.5619 38.0191 22.4577 38.0726 21.3891 38.1083C18.8589 38.2882 16.3169 38.2105 13.8023 37.8763C8.04987 38.2332 3.73998 38.3046 1.22885 38.3581V38.1797C3.63313 38.144 7.69368 38.0726 13.0899 37.7335L12.4488 37.5907C12.3776 37.6443 12.2707 37.6264 12.0926 37.5015L11.9501 37.4837L11.9858 37.448L11.9501 37.4123L12.0748 37.3587C12.1116 37.3152 12.1583 37.2811 12.211 37.2593C12.2637 37.2376 12.3208 37.2289 12.3776 37.2338C14.7913 36.2989 17.3588 35.8267 19.9466 35.8418C21.1932 35.7704 22.4577 35.699 23.7578 35.5206C24.5236 35.5206 25.2894 35.467 26.0018 35.4313C27.752 35.216 29.5268 35.3249 31.2378 35.7526L31.2556 35.699C31.2734 35.6455 31.2734 35.6455 31.683 35.8953L31.8433 35.9489L31.8077 35.9667L31.9145 36.0381L31.683 36.0738C25.1825 36.9661 19.4301 37.5015 14.6394 37.8227C16.8822 38.0466 19.1395 38.0884 21.3891 37.9477C22.4577 37.912 23.5619 37.8763 24.6839 37.8763C26.821 37.7157 29.0116 37.6086 31.1309 37.5194C34.5859 37.3409 38.1122 37.1624 41.6385 36.8055L41.8522 36.6984C42.8608 36.1996 43.9546 35.8969 45.0757 35.8061C46.1898 35.72 47.2775 35.4233 48.2814 34.9316C49.065 34.4319 49.6349 34.7532 50.3651 35.1993L50.8638 35.467L51.1665 35.5741L50.8638 35.6276C50.7 35.7152 50.5142 35.7524 50.3295 35.7347C47.8957 36.2152 45.4414 36.5844 42.9742 36.8412C55.1609 38.8055 67.4987 39.6715 79.8397 39.4289V39.6074C78.0706 39.6907 76.2897 39.7264 74.4969 39.7145L74.5147 39.6966ZM12.52 37.4301C12.9475 37.5372 13.3749 37.6264 13.8023 37.6978C19.6513 37.3121 25.4847 36.7169 31.2912 35.9132C29.5707 35.4702 27.7825 35.3552 26.0196 35.5741C25.2672 35.6378 24.5128 35.6735 23.7578 35.6812C22.4755 35.8596 21.1932 35.931 19.9466 36.0024C17.4044 35.9902 14.8815 36.4438 12.5022 37.3409L12.52 37.4301ZM42.1371 36.7163H42.2618C44.8264 36.4664 47.4087 36.1273 49.9377 35.6276C49.8492 35.5925 49.7743 35.53 49.7239 35.4492V35.3064C49.7239 35.2707 49.7596 35.1636 50.2048 35.2529C49.528 34.8781 49.0116 34.6282 48.317 35.0744C47.3087 35.574 46.2147 35.8768 45.0935 35.9667C44.0741 36.055 43.0757 36.3081 42.1371 36.7163ZM49.8486 35.3956C50.0009 35.4829 50.172 35.5318 50.3473 35.5384L50.5076 35.5206C50.2966 35.4416 50.0738 35.3994 49.8486 35.3956Z" fill="#1E3A8A"/>
<path d="M70.0801 39.9822C68.9491 39.9935 67.8185 39.928 66.6963 39.7858C63.7774 39.4103 60.8407 39.1898 57.8985 39.1255C52.86 39.1684 47.8429 38.4648 43.0098 37.0375C39.5904 37.2517 36.1888 37.3409 32.8584 37.4301C28.8335 37.5372 24.7195 37.6443 20.5699 37.9655C19.4776 38.0845 18.3793 38.1856 17.2752 38.2689L14.5681 38.6258C14.3435 38.617 14.1215 38.5749 13.9092 38.5009C10.7035 38.6972 7.49777 38.8221 4.18522 38.9471L0 39.1077V38.9292L4.18522 38.7686C7.3553 38.6615 10.4541 38.5544 13.5174 38.3581L13.0543 38.144C12.7593 37.9921 12.4488 37.8724 12.1282 37.787L12.1995 37.8941C12.2243 37.9572 12.2243 38.0274 12.1995 38.0904C12.1282 38.3046 11.6652 38.0547 11.309 37.8049L10.8994 37.9477L11.1665 37.7335L11.0953 37.68L11.2734 37.6443C11.3371 37.5918 11.412 37.5549 11.4924 37.5363C11.5727 37.5177 11.6562 37.518 11.7364 37.5372C18.1894 36.3068 24.7725 35.905 31.3268 36.3415L31.309 36.3058L31.2912 36.2701L31.309 36.1987C31.3268 36.1452 31.3446 36.1095 31.7542 36.3593H32.0214L31.772 36.52C31.445 36.7786 31.0597 36.9528 30.6498 37.0275C30.24 37.1022 29.8181 37.075 29.4212 36.9483C29.0679 36.8876 28.7109 36.8518 28.3526 36.8412C26.7973 37.1386 25.2478 37.3885 23.7044 37.5907C26.7854 37.4123 29.8486 37.3409 32.8584 37.2695C36.0641 37.1803 39.3232 37.091 42.6002 36.8947L42.4755 36.8412L42.333 36.7876L42.4577 36.6806C42.989 36.3034 43.5918 36.0392 44.2289 35.9041C44.8659 35.7691 45.5238 35.7661 46.1621 35.8953C47.1937 36.0659 48.2525 35.9294 49.2075 35.5027C49.9555 35.0209 50.5076 35.3242 51.2199 35.6812L51.7898 35.9667L52.146 36.0738L51.7898 36.1273C51.5247 36.2566 51.226 36.3003 50.935 36.2523C48.4417 36.6092 45.9483 36.8412 43.4372 37.0018C48.143 38.3271 53.0104 38.9879 57.8985 38.9649C60.8466 39.0286 63.7893 39.249 66.7141 39.6252C69.3967 39.893 72.0992 39.893 74.7818 39.6252C76.4737 39.5003 78.2369 39.3932 79.9109 39.4111V39.5895C78.2369 39.5538 76.4737 39.6788 74.7818 39.7858C73.2175 39.911 71.6493 39.9825 70.0801 40V39.9822ZM12.146 37.6264C12.4669 37.7188 12.7772 37.8444 13.0721 38.0012C13.3473 38.1425 13.6331 38.2619 13.927 38.3581L17.2752 38.1261C18.3793 38.0072 19.4776 37.906 20.5699 37.8227C23.1768 37.5417 25.7727 37.1667 28.3526 36.6984C28.7104 36.7035 29.0675 36.7333 29.4212 36.7876C29.7757 36.8935 30.148 36.926 30.5154 36.8831C30.8828 36.8401 31.2377 36.7226 31.5583 36.5378C25.0675 36.1002 18.5476 36.4658 12.146 37.6264ZM11.5049 37.7692C11.9501 38.0369 12.0926 38.0191 12.1282 38.0012L12.0392 37.8406L11.8433 37.7157C11.7603 37.7081 11.6769 37.7081 11.5939 37.7157L11.5049 37.7692ZM42.6358 36.7341L43.0098 36.8769C45.5565 36.6984 48.1033 36.4843 50.6322 36.1273L50.561 36.0559V35.9132C50.5966 35.7704 50.8638 35.7704 51.1309 35.8061C50.4541 35.4492 49.9377 35.2172 49.2431 35.6633C48.2775 36.097 47.2052 36.2337 46.1621 36.0559C44.9433 35.8229 43.6818 36.0655 42.6358 36.7341ZM50.65 35.9846C50.7351 36.0427 50.8328 36.0794 50.935 36.0916L51.3624 36.0203C51.1321 35.9464 50.8866 35.9341 50.65 35.9846Z" fill="#1E3A8A"/>
<path d="M79.8041 39.5895C67.692 39.6812 55.5865 38.9957 43.5619 37.5372L43.6153 37.6086C43.6286 37.6396 43.6354 37.673 43.6354 37.7067C43.6354 37.7405 43.6286 37.7739 43.6153 37.8049C43.6153 37.8584 43.5441 37.9834 42.992 37.448H42.8317L42.9029 37.3766C36.4348 37.8275 29.9639 38.238 23.4907 38.608C22.3687 38.608 21.2645 38.6437 20.1781 38.6794C18.3748 38.7746 16.5679 38.7806 14.764 38.6972C10.187 38.9649 5.36065 39.0898 0.0178223 39.1077V38.9292C4.89761 38.9292 9.34997 38.8221 13.553 38.608C12.8478 38.5342 12.1465 38.427 11.4515 38.2867C11.3268 38.4652 10.9706 38.376 10.4363 38.0726L10.2582 38.0369L10.3117 38.0012L10.2226 37.9477L10.4363 37.912C10.5325 37.8414 10.644 37.7948 10.7618 37.7762C10.8795 37.7576 10.9999 37.7674 11.1131 37.8049C17.7963 36.8728 24.5479 36.5264 31.2912 36.7698V36.6984C31.3268 36.6449 31.3446 36.5556 31.8255 36.7698H32.1104L31.9858 36.8412L32.0748 36.8947L31.8255 36.9304C31.743 36.9722 31.6489 36.9847 31.5583 36.9661C26.5539 37.7157 21.6563 38.2511 16.4559 38.5901C17.6851 38.5924 18.9143 38.5686 20.1425 38.5188C21.2111 38.4831 22.333 38.4474 23.4372 38.4474C29.9199 38.0547 36.5272 37.6621 43.1167 37.1981C44.3211 36.5149 45.7218 36.2631 47.0882 36.4843C48.2134 36.6509 49.3626 36.5154 50.4185 36.0916C50.7075 35.9143 51.0442 35.8311 51.3822 35.8535C51.7203 35.8758 52.0432 36.0027 52.3063 36.2166L52.7516 36.4307L52.9297 36.52L52.7516 36.5913C52.1104 36.8412 51.7008 36.8412 51.5939 36.6984C48.8691 36.9304 46.1086 37.1267 43.3482 37.3409H43.3838C55.4605 38.8208 67.6199 39.5182 79.7863 39.4289L79.8041 39.5895ZM11.4515 38.144C12.5393 38.3515 13.6402 38.4827 14.7462 38.5366C20.121 38.2267 25.4804 37.6909 30.8103 36.9304C24.3052 36.7071 17.7929 37.0415 11.3446 37.9298L11.4337 38.0726L11.4515 38.144ZM10.8638 38.0012L11.3268 38.1083L11.1309 37.9655L10.8638 38.0012ZM43.2057 37.4837C43.2894 37.5768 43.3928 37.65 43.5085 37.6978L43.3838 37.5194L43.2057 37.4837ZM45.9662 36.5913C45.1 36.5653 44.2417 36.7619 43.4729 37.1624C46.1799 36.984 48.8869 36.752 51.5761 36.5378C51.6296 36.395 51.8433 36.3058 52.2173 36.3415C51.9691 36.1524 51.6698 36.0427 51.3584 36.0268C51.047 36.0108 50.7381 36.0894 50.472 36.2523C49.4048 36.6807 48.2428 36.8162 47.106 36.6449C46.7267 36.6153 46.3466 36.5974 45.9662 36.5913ZM52.0748 36.4843L51.8255 36.52L52.1282 36.4843H52.0748Z" fill="#1E3A8A"/>
<path d="M79.9822 39.5717C68.1293 39.6304 56.2815 39.0644 44.488 37.8763C44.3455 38.0547 44.0784 38.1261 43.6866 37.8763C35.0846 38.4117 26.4826 38.5188 18.13 38.4474C12.1064 39.0466 6.05117 39.2671 0 39.1077V38.9292C5.5022 39.0923 11.0092 38.9254 16.4915 38.4295L10.6857 38.3403V38.376C10.5966 38.6258 10.1692 38.5901 9.58148 38.3224H9.33214L9.439 38.2511L9.40338 38.2332L9.58148 38.1618C9.76458 38.0485 9.97232 37.9811 10.187 37.9655C13.178 37.185 16.2755 36.8957 19.3589 37.1089C21.8603 37.2401 24.3686 37.0965 26.8388 36.6806C27.3151 36.6786 27.7908 36.6488 28.2636 36.5913C29.5133 36.337 30.8126 36.5329 31.9323 37.1446L32.2351 37.2874H31.9145C31.841 37.3338 31.7578 37.3628 31.6714 37.372C31.5849 37.3813 31.4975 37.3707 31.4158 37.3409C27.8896 37.555 24.6483 37.8584 21.4782 38.144L19.7685 38.3046C27.5156 38.3403 35.4586 38.2154 43.4016 37.7157L43.455 37.68L43.5441 37.6086C43.7012 37.4883 43.8752 37.392 44.0605 37.323C45.9616 36.5217 48.0603 36.3164 50.0801 36.7341C50.8638 36.8233 51.6474 36.9126 52.431 36.9126C52.6401 36.8099 52.8679 36.7506 53.1005 36.7383C53.3331 36.726 53.5657 36.761 53.7845 36.8412V37.0018C53.0543 37.2517 52.52 37.3052 52.3954 37.1446C49.9377 37.3944 47.474 37.6026 45.0044 37.7692C56.6336 38.9222 68.3141 39.4762 80 39.4289L79.9822 39.5717ZM9.99109 38.3224C10.3473 38.4295 10.5254 38.376 10.5788 38.3224H9.99109ZM10.6679 38.1797C13.1256 38.2273 15.6189 38.263 18.1478 38.2868L21.4782 37.9834C24.5948 37.6978 27.8362 37.4123 31.3268 37.1803V37.1267L31.4337 37.0553C30.43 36.6689 29.3401 36.564 28.2814 36.752C27.8026 36.8094 27.321 36.8392 26.8388 36.8412C24.3685 37.2566 21.8603 37.4003 19.3589 37.2695C16.3876 37.0685 13.403 37.3212 10.5076 38.0191L10.6679 38.1797ZM10.0267 38.1797H10.4898C10.4001 38.1403 10.3026 38.1219 10.2048 38.1261L10.0267 38.1797ZM43.9537 37.8406C44.0684 37.8845 44.1952 37.8845 44.3099 37.8406H44.1318H43.9537ZM43.7756 37.6264L44.1318 37.68L44.488 37.6621V37.5372C44.4702 37.4301 44.3099 37.3766 44.0784 37.4658L43.7756 37.6264ZM44.4345 37.2874L44.5592 37.448C44.587 37.5095 44.5993 37.5769 44.5948 37.6443C47.005 37.4896 49.4212 37.2933 51.8433 37.0553C51.248 37.0135 50.6541 36.954 50.0623 36.8769C48.1832 36.512 46.2411 36.6537 44.4345 37.2874Z" fill="#1E3A8A"/>
<path d="M80 39.5717C68.5038 39.6033 57.0118 39.1329 45.5565 38.1618L45.0579 38.1975C44.9753 38.2388 44.8849 38.2618 44.7927 38.2649C44.7005 38.268 44.6087 38.2511 44.5236 38.2154C39.7507 38.4474 34.9777 38.5009 30.2939 38.5544C24.0071 38.608 17.5067 38.6794 11.1843 39.1969C10.7386 39.1707 10.3026 39.0554 9.90205 38.8578L9.49243 38.7329C9.37268 38.7359 9.25303 38.7239 9.13624 38.6972C6.28673 38.7508 3.27694 38.8578 0 39.1077V38.9649C3.11665 38.7151 5.96616 38.608 8.691 38.5544H8.65539L8.38824 38.5188L8.4951 38.4831L8.38824 38.4295L8.65539 38.3938C9.18967 38.1261 9.59929 38.1083 9.75957 38.2511C16.7173 37.4637 23.7243 37.2012 30.7213 37.4658L30.6678 37.3944V37.2874C30.7213 37.1267 31.1665 37.1981 31.9857 37.4837H32.3241L32.1817 37.555L32.3063 37.5907L31.9857 37.6443C31.7988 37.7164 31.5968 37.741 31.398 37.7157C25.5987 38.3802 19.7638 38.6842 13.927 38.6258L9.75957 38.6794L9.90205 38.7329C10.2981 38.9229 10.7279 39.0321 11.1665 39.0541C17.4889 38.5366 23.9893 38.4831 30.276 38.4117C34.8709 38.376 39.5369 38.3224 44.2208 38.1083L44.1496 38.0547L43.9537 38.0369L44.0249 37.9834L44.0071 37.9477L44.1496 37.912C44.6483 37.555 44.9688 37.5372 45.1113 37.6264C46.7918 37.3271 48.5041 37.2491 50.2048 37.3944C51.1843 37.4301 52.1817 37.4658 53.179 37.4123C53.4283 37.271 53.7039 37.1823 53.9887 37.1516C54.2735 37.1209 54.5616 37.1489 54.8353 37.2338V37.3766C54.0695 37.6086 53.2324 37.787 53.1434 37.555C50.9579 37.8 48.7666 37.9904 46.5717 38.1261C56.3669 38.9828 66.5182 39.3754 79.9822 39.4468L80 39.5717ZM9.18967 38.4652L9.40338 38.5188H9.72395L9.83081 38.4117L9.79519 38.376L9.18967 38.4652ZM9.90205 38.3581V38.5009L13.9626 38.4652C19.662 38.5141 25.3593 38.2221 31.024 37.5907C23.9741 37.3175 16.9137 37.574 9.90205 38.3581ZM45.2538 38.0012H45.5743C47.6046 37.912 49.6171 37.7514 51.6296 37.5729L50.2404 37.5194C48.5751 37.386 46.8996 37.4639 45.2538 37.7514C45.2796 37.8265 45.2796 37.9082 45.2538 37.9834V38.0012ZM44.5414 37.9298L45.1291 37.9834L45.1825 37.912V37.8227L45.1469 37.7692L44.5414 37.9298ZM31.0062 37.448H31.5049C31.282 37.3694 31.0465 37.3331 30.8103 37.3409L31.0062 37.448ZM54.1941 37.2695C53.9834 37.2721 53.7738 37.3021 53.5708 37.3587L54.2119 37.2874L54.1941 37.2695Z" fill="#1E3A8A"/>
<path d="M71.3624 39.9822C70.3197 39.9873 69.278 39.9157 68.2458 39.768C65.0055 39.2731 61.7262 39.0819 58.4506 39.1969C55.3201 39.295 52.1868 39.1338 49.0828 38.7151H47.8718C46.956 38.8237 46.0277 38.7386 45.1469 38.4652C42.5646 38.5366 40.0178 38.5544 37.4889 38.5723C32.092 38.5214 26.6958 38.7239 21.3179 39.1791C20.089 39.1791 18.878 39.2326 17.7026 39.2683C14.9292 39.4548 12.1443 39.3771 9.38557 39.0363C6.53606 39.0898 3.50846 39.1255 0 39.0898V38.9471C3.18789 38.9649 6.00178 38.9471 8.61977 38.8935L8.44167 38.8578C8.1979 38.8506 7.95708 38.8024 7.72929 38.7151L7.49777 38.6615H7.53339L7.49777 38.6258L7.71148 38.5723C8.02417 38.421 8.36253 38.3302 8.70881 38.3046C11.9346 37.6835 15.2257 37.4736 18.504 37.68C21.3896 37.8337 24.2834 37.6962 27.1416 37.2695C27.5461 37.2641 27.9502 37.2402 28.3526 37.1981C29.6271 36.925 30.9572 37.1281 32.0926 37.7692L32.2351 37.8584L32.0926 37.912C31.7496 38.0358 31.3776 38.0545 31.024 37.9655L25.4853 38.2868C19.9644 38.608 15.423 38.8757 10.2939 39.0006C12.7567 39.23 15.2334 39.2718 17.7026 39.1255C18.878 39.0898 20.089 39.0363 21.3001 39.0363C26.7498 38.5009 32.2173 38.4652 37.5067 38.4295C39.9109 38.4117 42.3865 38.3938 44.862 38.3224L44.7907 38.2868L44.6839 38.2154L44.7907 38.144C46.0753 37.5494 47.5072 37.3506 48.9047 37.5729C49.439 37.6086 49.9555 37.6264 50.4363 37.6086L51.9857 37.5015C53.3117 37.3446 54.6521 37.3566 55.9751 37.5372L56.3134 37.5907L55.9751 37.68C55.4052 37.8227 54.0694 38.1618 53.9804 37.912C51.1859 38.1936 48.382 38.3722 45.5743 38.4474C46.3349 38.6087 47.115 38.6569 47.8896 38.5901C48.317 38.5723 48.7266 38.5544 49.1006 38.5901C52.211 39.0035 55.3503 39.1587 58.4862 39.0541C61.7619 38.9372 65.0413 39.1284 68.2814 39.6252C70.672 39.897 73.0857 39.897 75.4764 39.6252C76.9368 39.536 78.4506 39.4111 79.9822 39.4289V39.5717H79.7685C78.3414 39.587 76.9156 39.6584 75.4942 39.7858C74.1318 39.9034 72.7654 39.9689 71.398 39.9822H71.3624ZM8.85129 38.7864L9.38557 38.8757C14.8887 38.7508 19.6438 38.4831 25.4853 38.144L30.7391 37.8406L30.6857 37.7514V37.6621C30.7391 37.4837 31.1843 37.555 31.5939 37.6621C30.5614 37.2664 29.4404 37.1615 28.3526 37.3587C27.9505 37.4068 27.5464 37.4365 27.1416 37.448C24.2828 37.8687 21.389 38.0002 18.504 37.8406C15.3285 37.6522 12.1418 37.8439 9.01157 38.4117L9.065 38.4831V38.6258C9.04315 38.6684 9.01297 38.7062 8.97625 38.7368C8.93954 38.7675 8.89704 38.7726 8.85129 38.7864ZM8.44167 38.7329C8.79786 38.7329 8.97596 38.608 8.99376 38.5544C8.99376 38.5188 8.90472 38.4652 8.72662 38.4652L8.01425 38.6437L8.44167 38.7329ZM44.951 38.2332L45.1647 38.3224C48.1209 38.2566 51.0734 38.078 54.016 37.7871C54.1857 37.6669 54.3807 37.5875 54.5859 37.555C53.7117 37.5502 52.8378 37.5919 51.9679 37.68C51.4521 37.7197 50.9355 37.7495 50.4185 37.7692C49.9077 37.7835 49.3965 37.7716 48.8869 37.7335C47.5482 37.5351 46.1808 37.7079 44.9332 38.2332H44.951ZM30.7747 37.7335L31.024 37.8406L31.6474 37.8049C31.3619 37.7033 31.0726 37.6787 30.7747 37.7335ZM55.2627 37.6264C55.0049 37.628 54.7481 37.658 54.4969 37.7157L55.2627 37.6264Z" fill="#1E3A8A"/>
</svg>
