<svg width="26" height="24" viewBox="0 0 26 24" fill="none" xmlns="http://www.w3.org/2000/svg">
<path fill-rule="evenodd" clip-rule="evenodd" d="M14.177 18.3838C14.177 18.3838 14.6101 18.3366 14.832 18.1027C15.0351 17.8884 15.028 17.4839 15.028 17.4839C15.028 17.4839 15.001 15.5954 15.8943 15.3166C16.7747 15.0423 17.9051 17.1429 19.1048 17.9506C20.011 18.5613 20.6989 18.4276 20.6989 18.4276L23.9046 18.3838C23.9046 18.3838 25.5809 18.2824 24.7862 16.9885C24.7204 16.8825 24.3225 16.031 22.4033 14.2819C20.3925 12.451 20.6625 12.7471 23.0829 9.57957C24.5573 7.65073 25.1465 6.47314 24.9622 5.96961C24.7873 5.48798 23.7027 5.61587 23.7027 5.61587L20.0943 5.63777C20.0943 5.63777 19.8267 5.60205 19.6283 5.71842C19.4346 5.83249 19.309 6.09866 19.309 6.09866C19.309 6.09866 18.7385 7.59081 17.9767 8.86058C16.3697 11.5384 15.7276 11.6801 15.4647 11.5142C14.8531 11.1259 15.0057 9.95636 15.0057 9.12559C15.0057 6.5296 15.4072 5.44765 14.2251 5.16765C13.8331 5.07432 13.5443 5.01325 12.5407 5.00288C11.253 4.99021 10.1636 5.00749 9.54619 5.30362C9.13535 5.50065 8.81841 5.9408 9.0121 5.96615C9.25039 5.99726 9.79035 6.10903 10.0768 6.49157C10.4465 6.98589 10.4336 8.09434 10.4336 8.09434C10.4336 8.09434 10.6461 11.1501 9.93708 11.5292C9.45111 11.7896 8.78437 11.2584 7.35111 8.82831C6.61746 7.5839 6.06341 6.20812 6.06341 6.20812C6.06341 6.20812 5.95659 5.95118 5.76525 5.81291C5.53401 5.64583 5.2112 5.59398 5.2112 5.59398L1.78241 5.61587C1.78241 5.61587 1.26709 5.6297 1.07811 5.84978C0.910246 6.04451 1.06519 6.44894 1.06519 6.44894C1.06519 6.44894 3.74977 12.6146 6.79002 15.7222C9.57789 18.5705 12.7426 18.3838 12.7426 18.3838H14.177Z" stroke="#111827" stroke-width="1.5" stroke-linecap="round"/>
</svg>
