<svg width="32" height="32" viewBox="0 0 32 32" fill="none" xmlns="http://www.w3.org/2000/svg">
<path d="M4.28859 21.1706C3.58953 19.5894 3.20127 17.84 3.20127 16C3.20127 8.93076 8.93203 3.2 16.0013 3.2C23.0705 3.2 28.8013 8.93076 28.8013 16C28.8013 23.0692 23.0705 28.8 16.0013 28.8C13.7253 28.8 11.588 28.206 9.73608 27.1645L3.19884 28.7988L4.28859 21.1706Z" stroke="#111827" stroke-width="1.5" stroke-linecap="round" stroke-linejoin="round"/>
<path d="M21.8605 20.5294C21.8605 20.5294 21.0767 21.2907 20.8846 21.5139C20.5717 21.8441 20.203 22 19.7197 22C19.6733 22 19.6237 22 19.5772 21.9969C18.6571 21.9389 17.8021 21.5842 17.1608 21.2815C15.4073 20.4438 13.8676 19.2545 12.5881 17.7473C11.5317 16.4907 10.8253 15.3289 10.3575 14.0815C10.0694 13.3203 9.96409 12.7271 10.0106 12.1676C10.0415 11.8099 10.181 11.5134 10.4381 11.2596L11.4945 10.2171C11.6463 10.0764 11.8074 10 11.9654 10C12.1606 10 12.3186 10.1162 12.4177 10.214C12.4208 10.2171 12.4239 10.2201 12.427 10.2232C12.616 10.3975 12.7957 10.5778 12.9847 10.7704C13.0807 10.8683 13.1798 10.9661 13.279 11.067L14.1247 11.9017C14.4531 12.2257 14.4531 12.5254 14.1247 12.8494C14.0349 12.9381 13.9481 13.0268 13.8583 13.1124C13.5981 13.3753 13.8025 13.1735 13.533 13.412C13.5268 13.4181 13.5206 13.4212 13.5175 13.4273C13.251 13.6902 13.3006 13.947 13.3564 14.1213C13.3595 14.1305 13.3626 14.1397 13.3657 14.1488C13.5856 14.6747 13.8954 15.17 14.3663 15.76L14.3694 15.7631C15.2245 16.8026 16.126 17.6128 17.1205 18.2334C17.2475 18.3129 17.3776 18.3771 17.5015 18.4383C17.613 18.4933 17.7184 18.5453 17.8082 18.6003C17.8206 18.6064 17.833 18.6156 17.8454 18.6217C17.9507 18.6737 18.0499 18.6981 18.1521 18.6981C18.4092 18.6981 18.5703 18.5391 18.623 18.4872L19.2303 17.8879C19.3356 17.7839 19.5029 17.6586 19.6981 17.6586C19.8901 17.6586 20.0481 17.7778 20.1442 17.8818C20.1473 17.8848 20.1473 17.8848 20.1504 17.8879L21.8574 19.5725C22.1765 19.8843 21.8605 20.5294 21.8605 20.5294Z" stroke="#111827" stroke-width="1.5" stroke-linecap="round" stroke-linejoin="round"/>
</svg>
